<?xml version="1.0" encoding="utf-8"?>
<!-- Generator: Adobe Illustrator 25.3.1, SVG Export Plug-In . SVG Version: 6.00 Build 0)  -->
<svg version="1.1" id="Layer_2" xmlns="http://www.w3.org/2000/svg" xmlns:xlink="http://www.w3.org/1999/xlink" x="0px" y="0px"
	 width="999.5px" height="253.1px" viewBox="0 0 999.5 253.1" style="enable-background:new 0 0 999.5 253.1;" xml:space="preserve"
	>
<style type="text/css">
	.st0{fill:#DC3D43;}
	.st1{fill:#11AF4B;}
</style>
<g>
	<path d="M333.3,207.9c1.1,9.6,8.7,16.6,21.2,16.6c6.5,0,14.9-2.7,19-7.3l11.2,12.2c-7.5,8.5-19.7,12.7-30.4,12.7
		c-24.4,0-38.9-16.6-38.9-41.6c0-23.8,14.7-40.8,37.7-40.8c23.8,0,38.6,16.1,35.9,48.3h-55.6V207.9z M371.9,192
		c-1.1-10.1-8.4-15.2-18.4-15.2c-9.5,0-17.2,5.1-19.8,15.2H371.9z"/>
	<path d="M599.3,199.5v43.4h-7.8V130.1c14.8,0,24.4,0,39.2,0c44,0,44,69.4,0,69.4H599.3z M599.3,138.3v53.2h31.4
		c30.7,0,33.8-53.2,0-53.2C630.8,138.3,599.3,138.3,599.3,138.3z"/>
	<path d="M664.9,201.4c0-25.5,17.4-41.6,38.9-41.6c21.6,0,38.9,16.3,38.9,41.6s-17.4,41-38.9,41S664.9,226.7,664.9,201.4z
		 M735.4,201.4c0-20.7-14.2-34.2-31.4-34.2c-17.2,0-31.4,13.4-31.4,34.2s14.2,33.3,31.4,33.3C721.2,234.6,735.4,222.1,735.4,201.4z"
		/>
	<path d="M825,242.1h-7.9l-11.7-35.6l-8.7-31.7l-9.1,31.8l-11.7,35.5H768l-25.7-81.4h7.9l21.8,72.1l22.2-72.1h5.2l21.9,72.1
		l21.7-72.1h7.9L825,242.1z"/>
	<path d="M853.5,200.7c0-23.8,16.3-41,36.5-41c20.2,0,38.3,13.7,35.5,44.7h-64.7c1.5,18.7,14.4,29.4,29.2,29.4
		c9.5,0,20.5-4.2,25.9-12.1l5.1,4.6c-7,10.1-19.5,15.3-31,15.3C869.8,241.6,853.5,226,853.5,200.7z M919,197.5
		C918.9,178,907.2,167,890,167c-14.8,0-27.6,11.1-29.2,30.6H919z"/>
	<path d="M531.5,160.6c-6.2,0-11.3,1-15.6,2.8v-33.3h-17.7v69.5V242h17.7l0,0v-42.6c0.1-14.4,6-20.5,16.3-20.5
		c10.3,0,15,6.2,15,20.8V242h17.7v-42.4C564.8,176,556.2,160.6,531.5,160.6z"/>
	<path d="M459.1,191.7c-9.5-0.6-13.9-3.4-13.9-8.5c0-4.9,4.8-8.7,13.7-8.7c7.1,0,13.2,2.8,18.5,8l10.3-12.6
		c-8.6-7.9-17.4-10.2-29.1-10.2c-13.7,0-31.5,6.3-31.5,24.3c0,17.6,16.8,22.9,30.9,24c10.6,0.6,13.3,2.8,13.3,8.1
		c0,5.7-5.3,9.2-12.2,9.1h-15.8h-12h-3.6c-6.7,0.1-11.7-3.4-11.7-9.1v-86h-17.7v86.5c0,13.7,12.3,25.5,29.3,25.5h3.7h12h15.8
		c17.7,0,30.4-11.8,30.4-25.5C489.6,196.1,473.3,192.7,459.1,191.7z"/>
	<polygon points="307.6,130 284.6,204.1 283.3,208 282.1,203.9 259.4,130 243.7,130 221.7,203.9 220.6,208 219.3,204.1 195.6,130 
		176.8,130 213.3,242.1 227.8,242.1 250.4,170.8 251.7,166.9 252.9,170.8 276.1,242.1 290.5,242.1 326.3,130 	"/>
	<path d="M979.2,160.1c-2-0.2-3.9-0.4-5.9-0.4c-9.2,0-22.5,4.3-27.1,15.3l-0.2-14.5h-6.8v81.4h7.1v-47.4c0-14.8,13.6-27.2,27-27.2
		c2.2,0,4.1,0.1,5.9,0.4V160.1z"/>
</g>
<path class="st0" d="M183,53.1c-11.1,0.8-13.5,5.2-24.6,3.6c-6.3-0.9-11.9-5.2-14.3-8.3c-2.4-3.2-8.3-9.1-15.1-11.9
	c-6.8-2.8-8.3-4.4-56.4,2c-48,6.3-58.3-28.2-58.3-28.2C13.6,26.1,23.5,31,25.9,43.8c3.2,16.8,35.7,18,35.7,18s-25,16.4-13.8,43.3
	c11.1,27,40.5,22.2,75.8,40.5c35.3,18.3,16.3,66.7,16.3,66.7c23.4-18.3,29-48.8,20.6-69.8c-8.3-21-31.5-29.1-31.5-29.1
	s15.7-2.2,20.8-3c5.2-0.8,11.1-0.8,18.3,0.4c7.1,1.2,0.8,10.3,0.8,10.3c9.1-1.6,15.1-10.7,15.9-16.3c0.8-5.6-4.4-7.9-7.1-7.9
	c-2.8,0-14.3,5.2-23,7.1c-8.7,2-13.8,1.6-19.7-1.5c-6.3-3.3-11.8-7.1-11.7-16.4c0.1-5.2,3.6-10.7,9.5-14.3s19-5.6,32.9,0.4
	c13.9,6,21.8,3.6,25.8,1.2c4-2.4,4.8-9.1,4.8-9.1c7.9-5.6,18.2-0.8,18.2-0.8C204.5,55.1,194.2,52.3,183,53.1z M123.1,62.8
	c-5.3-0.6-2.3-7.8-2.3-7.8c-3.3-0.8-4.6-5.8-4.6-5.8c3.3,1.9,13.2,5,15.5,5.8c2.3,0.8,3,1.7,3,1.7C134.9,59.5,128.3,63.4,123.1,62.8
	z"/>
<path class="st1" d="M138.3,114.7c0,0,18.9,6.2,26.6,27.7c7.7,21.3,2.8,51.6-20.6,69.8C206.6,173.1,167.4,112.3,138.3,114.7z"/>
<polygon class="st1" points="140.6,89.6 245.7,69.4 229.5,85.6 289.4,78.5 193,103.5 209.6,86.8 "/>
</svg>
