<?xml version="1.0" encoding="utf-8"?>
<!-- Generator: Adobe Illustrator 25.3.1, SVG Export Plug-In . SVG Version: 6.00 Build 0)  -->
<svg version="1.1" id="Layer_2" xmlns="http://www.w3.org/2000/svg" xmlns:xlink="http://www.w3.org/1999/xlink" x="0px" y="0px"
	 width="951.6px" height="274.3px" viewBox="0 0 951.6 274.3" style="enable-background:new 0 0 951.6 274.3;" xml:space="preserve"
	>
<style type="text/css">
	.st0{fill:#DC3D43;}
	.st1{fill:#11AF4B;}
</style>
<path class="st0" d="M183,53.1c-11.1,0.8-13.5,5.2-24.6,3.6c-6.3-0.9-11.9-5.2-14.3-8.3c-2.4-3.2-8.3-9.1-15.1-11.9
	c-6.8-2.8-8.3-4.4-56.4,2c-48,6.3-58.3-28.2-58.3-28.2C13.6,26.1,23.5,31,25.9,43.8c3.2,16.8,35.7,18,35.7,18s-25,16.4-13.8,43.3
	c11.1,27,40.5,22.2,75.8,40.5c35.3,18.3,16.3,66.7,16.3,66.7c23.4-18.3,29-48.8,20.6-69.8c-8.3-21-31.5-29.1-31.5-29.1
	s15.7-2.2,20.8-3c5.2-0.8,11.1-0.8,18.3,0.4c7.1,1.2,0.8,10.3,0.8,10.3c9.1-1.6,15.1-10.7,15.9-16.3c0.8-5.6-4.4-7.9-7.1-7.9
	c-2.8,0-14.3,5.2-23,7.1c-8.7,2-13.8,1.6-19.7-1.5c-6.3-3.3-11.8-7.1-11.7-16.4c0.1-5.2,3.6-10.7,9.5-14.3s19-5.6,32.9,0.4
	c13.9,6,21.8,3.6,25.8,1.2c4-2.4,4.8-9.1,4.8-9.1c7.9-5.6,18.2-0.8,18.2-0.8C204.5,55.1,194.2,52.3,183,53.1z M123.1,62.8
	c-5.3-0.6-2.3-7.8-2.3-7.8c-3.3-0.8-4.6-5.8-4.6-5.8c3.3,1.9,13.2,5,15.5,5.8c2.3,0.8,3,1.7,3,1.7C134.9,59.5,128.3,63.4,123.1,62.8
	z"/>
<path class="st1" d="M138.3,114.7c0,0,18.9,6.2,26.6,27.7c7.7,21.3,2.8,51.6-20.6,69.8C206.6,173.1,167.4,112.3,138.3,114.7z"/>
<polygon class="st1" points="140.6,89.6 245.7,69.4 229.5,85.6 289.4,78.5 193,103.5 209.6,86.8 "/>
<g>
	<path d="M609.7,212.9c5,4.9,9.9,9.6,15,14.5c-4,4-8.3,7.4-13.3,9.8c-21.1,10.2-42.2,9.9-63-0.6c-11.3-5.7-18.8-15.2-23.3-27
		c-6.1-16.2-6.4-32.6,0.1-48.7c8.6-21.5,25.2-32.8,47.9-35.4c18.2-2,34.3,2.8,48,15.1c0.7,0.6,1.3,1.2,2.1,2
		c-4.8,4.6-9.5,9.2-14.3,13.8c-0.8-0.7-1.6-1.3-2.3-1.9c-14.5-12.2-39.1-11.8-52.6,0.9c-9.9,9.4-13.2,21.3-11.8,34.5
		c0.4,4,1.4,8,2.8,11.7c5.5,13.8,16.4,20.6,30.8,22C588.8,225.1,600.2,221.5,609.7,212.9z"/>
	<path d="M628.1,263.8c0.5-1.1,0.8-1.9,1.1-2.7c3.8-8.9,7.7-17.8,11.4-26.8c0.5-1.1,0.5-2.7,0-3.8c-8.9-22.2-18-44.4-27-66.6
		c-0.3-0.7-0.6-1.5-1-2.5c0.9-0.1,1.6-0.2,2.2-0.2c5.4,0,10.9,0.1,16.3-0.1c1.8,0,2.5,0.7,3,2.3c5.3,15.5,10.7,30.9,16,46.3
		c0.3,0.8,0.6,1.6,1.1,2.9c2.1-5.7,4-11,6.1-16.2c4.6-11.3,9.2-22.5,13.9-33.7c0.3-0.7,1.1-1.5,1.8-1.6c6.1-0.1,12.1-0.1,18.6-0.1
		c-0.4,1-0.6,1.7-0.9,2.4c-14.1,32.7-28.2,65.4-42.2,98.1c-0.6,1.4-1.3,2.1-3,2.1C640,263.7,634.2,263.8,628.1,263.8z"/>
	<path d="M323.4,175.8c-1.6,5.6-3.1,11.2-4.8,16.7c-5,15.9-10.1,31.8-15.1,47.7c-0.5,1.5-1.2,2-2.7,2c-5.9,0-5.9,0-7.7-5.5
		c-7.7-24.5-15.5-48.9-23.2-73.4c-0.3-0.8-0.5-1.7-0.9-2.8c2.4,0,4.6-0.2,6.8,0.1c0.7,0.1,1.5,1.2,1.8,2.1
		c5.3,17.4,10.6,34.8,15.9,52.3c1.5,5,3,9.9,4.5,14.9c0.2,0.7,0.5,1.3,1,2.5c2-6.5,3.8-12.4,5.7-18.3c5.2-16.9,10.4-33.7,15.5-50.6
		c0.6-2,1.3-3,3.7-3c2.4,0,2.8,1.2,3.3,2.9c6.7,22.1,13.5,44.3,20.2,66.4c0.2,0.8,0.5,1.5,0.9,2.8c2.3-7.6,4.4-14.6,6.5-21.7
		c4.8-16,9.7-32.1,14.4-48.1c0.5-1.7,1.2-2.4,3-2.2c1.8,0.2,3.5,0,5.6,0c-1.3,4.1-2.4,7.9-3.6,11.6c-7.1,22.6-14.3,45.2-21.3,67.9
		c-0.5,1.7-1.3,2.2-3,2.2c-5.6-0.1-5.6,0-7.4-5.3c-6.7-19.5-12.7-39.1-17.9-59c-0.2-0.7-0.4-1.4-0.6-2.1
		C323.7,175.8,323.6,175.8,323.4,175.8z"/>
	<path d="M197.6,199.4c0,14.6,0,28.8,0,43.2c-2.7,0-5.1,0-7.8,0c0-37.5,0-74.9,0-112.8c0.9,0,1.8,0,2.6,0c11.8,0,23.6,0.2,35.5,0
		c23.2-0.4,34,17.5,33.9,33.6c0,4.8-0.7,9.8-2.1,14.3c-4.4,13.5-15.5,21.3-30.2,21.6c-9.5,0.2-19.1,0.1-28.7,0.1
		C199.9,199.4,199,199.4,197.6,199.4z M197.7,191.2c11.5,0,22.8,0.2,34-0.1c5.8-0.2,10.7-3.1,14.5-7.6c5.8-6.9,7.9-15,6.6-23.9
		c-1.7-11.9-8.2-20-18.9-21c-11.9-1.1-24-0.2-36.2-0.2C197.7,155.9,197.7,173.5,197.7,191.2z"/>
	<path d="M440.2,222c1.5,1.3,3,2.7,4.8,4.3c-0.6,0.8-1.2,1.7-1.9,2.4c-10.3,11.1-23.1,15.1-37.7,11.8c-14.6-3.3-23.2-13.4-26.6-27.6
		c-3.5-14.9-1.6-29.2,8.7-41.2c10.2-11.9,23.4-14.9,38.1-10.5c14.2,4.2,21.4,14.7,23.5,28.9c0.7,4.6,0.5,9.3,0.7,14.2
		c-22.1,0-43.6,0-65.3,0c1.4,12.7,6.6,23,18.8,27.4C417.6,236.9,429.9,232.8,440.2,222z M385,197.3c19.4,0,38.6,0,57.8,0
		c2.3-14.8-9.7-29.3-25.1-30.4C399.4,165.6,384.8,179.2,385,197.3z"/>
	<path d="M499,167.1c-2.4,0-4.5-0.1-6.6,0c-14.4,0.8-26.2,13.1-26.3,27.6c-0.1,14.7,0,29.5,0,44.2c0,0.9,0,1.7,0,2.8
		c-2.5,0-4.7,0-7.1,0c0-27,0-54.1,0-81.3c2.1,0,4.2,0,6.7,0c0,4.4,0,8.7,0,13c0.5,0,0.7,0,0.8,0c6-10.2,15.6-13.7,26.7-13.9
		c7.4-0.1,5.7-0.7,5.9,5.9C499.1,166,499,166.5,499,167.1z"/>
	<path d="M338.5,148.1c-0.5,0.2-0.7,0.2-0.8,0.3c-6.3,0.3-6.3,0.3-9.2-5.1c-1.3-2.5-2.7-5-4.3-7.8c-1.9,3.4-3.8,6.3-5.3,9.5
		c-1.2,2.7-2.9,4-5.9,3.5c-0.8-0.1-1.6,0-2.7,0c0.4-0.9,0.7-1.6,1-2.1c2.8-4.8,5.6-9.6,8.4-14.5c0.8-1.4,1.6-2.1,3.2-1.9
		c1,0.1,1.9,0.1,2.9,0c1.5-0.2,2.3,0.4,3.1,1.7C332,137,335.2,142.4,338.5,148.1z"/>
	<path d="M902.1,225.1c10.4,0,15.2-4.7,16.4-14.5c0.3-2.4,0.4-4.8,0.4-7.3c0-12.6,0-25.3,0-37.9c0-0.9,0-1.7,0-2.7
		c5.6,0,10.9,0,16.3,0c0,0.8,0.1,1.4,0.1,2.1c0,13.3,0.1,26.6,0,39.9c0,4.1-0.3,8.3-1,12.3c-2.1,12-8.1,20.2-19.6,23
		c-2.8,0.7-9.8,1.3-12.7,1.1c-2.9,0.1-9.8-0.4-12.7-1.1c-11.4-2.8-17.5-11-19.6-23c-0.7-4-1-8.2-1-12.3c-0.1-13.3,0-26.6,0-39.9
		c0-0.6,0.1-1.3,0.1-2.1c5.4,0,10.7,0,16.3,0c0,0.9,0,1.8,0,2.7c0,12.6,0,25.3,0,37.9c0,2.4,0.1,4.9,0.4,7.3
		C886.9,220.4,891.7,225.1,902.1,225.1"/>
	<path d="M792,241.9c0,0,0-6.8,0-19.3c-0.6-7.9-0.2-15.9-0.6-23.8c-0.2-3.7-0.5-7.5-1.7-11c-3.5-9.9-15.3-11.9-22.2-4
		c-3.8,4.4-5.1,9.7-5.2,15.3c0,13.3,0,26.6,0,39.9c0,0.9,0,1.8,0,2.8c-5.9,0-11.7,0-17.9,0c0-0.9,0-1.9,0-2.8c0-13.1,0-26.1,0-39.2
		c0-4.6-0.5-9.1-2.6-13.2c-2.3-4.5-5.8-7.6-11.1-7.9c-5.6-0.4-9.7,2.1-12.6,6.7c-2.8,4.4-3.7,9.3-3.7,14.4c0,13.1,0,26.1,0,39.2
		c0,1,0,1.9,0,3c-6,0-11.7,0-17.6,0c0-26.8,0-53.6,0-80.5c5.4,0,10.7,0,16.3,0c0.4,2.9,0.8,5.8,1.3,9.2c5.1-8.3,12.4-11.2,21.4-10.5
		c9.2,0.8,15.3,5.9,18.9,14.7c1-1.4,1.7-2.6,2.5-3.7c6.4-9,15.3-11.8,25.8-10.6c14.5,1.8,23.5,10.6,25.3,26.1
		c1.2,9.7,0.8,19.6,1,29.4c0.1,2.3,0,4.5,0.1,6.8c0.1,5.3,0.1,5.3,0.1,19"/>
	<path d="M818,242c0,0-0.1-16.3,0-19.7c0.1-2.3-0.1-4.5-0.1-6.8c0-17.4,0-34.9,0-52.3c0-0.6,0.1-1.3,0.1-2.2c5.2,0,10.4,0,15.6,0.1
		c0.4,0,1,0.9,1.2,1.5c0.4,1.5,0.6,3,1,4.7c6.8-8.6,15.7-7.9,24.7-6.4c0.5,0.1,1.2,0.9,1.2,1.4c0.1,5.8,0.1,11.7,0.1,17.7
		c-1.8-0.4-3.4-0.9-5.1-1.1c-12.4-1.2-20.4,5.8-20.8,18.4c-0.2,6.1,0,12.2-0.2,18.2c-0.1,3,0.1,9.1,0.1,9.1V242"/>
</g>
</svg>
