<svg fill="none" height="37" viewBox="0 0 37 37" width="37" xmlns="http://www.w3.org/2000/svg" xmlns:xlink="http://www.w3.org/1999/xlink"><clipPath id="a"><path d="m.75 0h36.1048v36.1048h-36.1048z"/></clipPath><g clip-path="url(#a)" fill="#1e4264"><path d="m18.8025 14.1978c-2.1238 0-3.8547 1.7282-3.8547 3.8547 0 2.1264 1.7282 3.8547 3.8547 3.8547 2.1264 0 3.8547-1.7283 3.8547-3.8547 0-2.1265-1.7283-3.8547-3.8547-3.8547z"/><path d="m24.1015 8.41846h-10.5978c-2.392 0-4.33524 1.94594-4.33524 4.33524v10.5978c0 2.3919 1.94594 4.3352 4.33524 4.3352h10.5978c2.3919 0 4.3352-1.9459 4.3352-4.3352v-10.5978c0-2.392-1.9459-4.33524-4.3352-4.33524zm-5.2989 15.41624c-3.1884 0-5.7821-2.5937-5.7821-5.7821s2.5937-5.7821 5.7821-5.7821 5.7821 2.5937 5.7821 5.7821-2.5937 5.7821-5.7821 5.7821zm6.1431-10.6005c-.7327 0-1.3247-.592-1.3247-1.3247s.592-1.3248 1.3247-1.3248 1.3247.5921 1.3247 1.3248-.592 1.3247-1.3247 1.3247z"/><path d="m.75 0v36.1048h36.1048v-36.1048zm29.6139 23.3513c0 3.4538-2.8088 6.2626-6.2626 6.2626h-10.5978c-3.4539 0-6.26261-2.8088-6.26261-6.2626v-10.5978c0-3.45387 2.80871-6.26261 6.26261-6.26261h10.5978c3.4538 0 6.2626 2.80874 6.2626 6.26261z"/></g></svg>