<svg fill="none" height="25" viewBox="0 0 25 25" width="25" xmlns="http://www.w3.org/2000/svg"><path d="m0 0v25h25v-25zm8.26103 20.1618h-3.18382v-10.23533h3.18382zm-1.59191-11.63423c-1.02206 0-1.84559-.8272-1.84559-1.84559 0-1.01838.82353-1.84558 1.84559-1.84558s1.84375.8272 1.84375 1.84558c0 1.01839-.82537 1.84559-1.84375 1.84559zm10.32538 11.63423v-4.978c0-1.1875-.0202-2.7132-1.6526-2.7132-1.6323 0-1.9081 1.2923-1.9081 2.6287v5.0625h-3.1783v-10.23533h3.0496v1.39893h.0442c.4246-.8052 1.4614-1.65261 3.011-1.65261 3.2206 0 3.8162 2.11951 3.8162 4.87681v5.614h-3.1802z" fill="#1e4264"/></svg>