<svg fill="none" height="37" viewBox="0 0 37 37" width="37" xmlns="http://www.w3.org/2000/svg"><path d="m.85498 0v36.1048h36.10482v-36.1048zm11.93052 29.1174h-4.59807v-14.7817h4.59807zm-2.299-16.802c-1.47609 0-2.66542-1.1946-2.66542-2.66534s1.18933-2.66538 2.66542-2.66538c1.476 0 2.6627 1.19464 2.6627 2.66538s-1.192 2.66534-2.6627 2.66534zm14.9118 16.802v-7.1891c0-1.7149-.0292-3.9184-2.3867-3.9184-2.3574 0-2.7556 1.8663-2.7556 3.7963v7.3112h-4.5901v-14.7817h4.4043v2.0203h.0637c.6132-1.1628 2.1105-2.3866 4.3485-2.3866 4.6511 0 5.5113 3.0609 5.5113 7.043v8.1077h-4.5928z" fill="#1e4264"/></svg>