<?xml version="1.0" standalone="no"?>
<!DOCTYPE svg PUBLIC "-//W3C//DTD SVG 20010904//EN"
 "http://www.w3.org/TR/2001/REC-SVG-20010904/DTD/svg10.dtd">
<svg version="1.0" xmlns="http://www.w3.org/2000/svg"
 width="500.000000pt" height="500.000000pt" viewBox="0 0 500.000000 500.000000"
 preserveAspectRatio="xMidYMid meet">
<metadata>
Created by potrace 1.14, written by Peter Selinger 2001-2017
</metadata>
<g transform="translate(0.000000,500.000000) scale(0.100000,-0.100000)"
fill="#000000" stroke="none">
<path d="M450 4627 c0 -7 5 -54 10 -106 11 -105 38 -175 89 -233 17 -20 31
-38 31 -42 0 -3 -16 -6 -35 -6 -34 0 -75 -27 -75 -50 0 -15 189 -219 279 -300
135 -123 176 -150 229 -150 56 0 47 -11 -28 -35 -90 -29 -259 -120 -352 -190
-114 -86 -253 -227 -334 -340 -71 -100 -83 -127 -63 -151 19 -23 67 -15 283
46 139 40 190 50 198 42 8 -8 -15 -39 -93 -120 -58 -59 -133 -145 -168 -190
-193 -255 -339 -576 -358 -793 -5 -59 -3 -69 16 -88 34 -34 73 -27 154 27 40
27 116 75 170 107 137 79 139 76 92 -116 -93 -375 -108 -664 -49 -909 22 -90
104 -255 156 -314 39 -43 46 -48 65 -38 17 9 21 25 27 94 16 183 78 395 121
412 25 9 63 -14 80 -51 9 -18 34 -88 55 -154 46 -140 111 -281 168 -365 58
-87 169 -187 247 -224 97 -46 116 -31 71 58 -34 67 -59 158 -51 184 22 70 73
75 171 18 135 -79 406 -165 616 -196 129 -19 458 -15 588 7 l74 12 -100 32
c-410 129 -714 458 -873 942 -71 215 -86 316 -85 568 0 206 2 226 27 318 34
128 86 233 146 299 l48 52 -75 111 c-41 60 -81 117 -88 126 -29 33 -11 29 74
-17 l87 -47 405 -18 c223 -10 417 -18 433 -19 l27 0 0 -75 c0 -44 4 -75 10
-75 6 0 36 25 67 55 31 30 58 54 59 52 2 -1 10 -47 20 -102 9 -55 18 -102 20
-104 9 -9 109 67 161 123 59 63 123 170 141 239 12 42 14 41 -93 52 -225 23
-596 90 -729 132 -160 50 -247 116 -232 177 7 28 50 72 90 93 26 14 906 260
1043 293 47 11 56 10 85 -7 18 -10 47 -43 65 -72 37 -61 28 -68 74 62 13 37
29 67 35 67 38 0 114 -111 114 -167 0 -13 4 -23 9 -23 5 0 47 50 94 112 l85
111 -45 96 c-70 152 -115 207 -211 255 -92 46 -138 49 -379 25 -252 -25 -336
-22 -448 15 -135 45 -233 124 -288 232 l-16 31 -298 6 c-164 4 -424 12 -578
18 -250 10 -283 14 -308 31 -96 68 -273 105 -565 118 -281 12 -329 17 -363 34
-21 10 -29 11 -29 3z m213 -237 c52 -31 129 -42 204 -29 48 9 71 8 90 0 36
-17 13 -41 -41 -42 -22 -1 -54 -5 -71 -9 l-30 -7 25 -10 c64 -28 93 -36 212
-63 192 -43 298 -102 298 -164 0 -12 -15 -36 -32 -53 -38 -36 -134 -86 -148
-78 -21 13 -8 36 33 56 117 60 124 88 35 132 -32 15 -97 37 -145 49 -165 38
-258 70 -366 125 -121 63 -136 76 -117 98 15 19 12 19 53 -5z m1846 -132 c17
-23 31 -45 31 -48 0 -3 -33 -17 -72 -29 -40 -13 -78 -26 -84 -28 -12 -4 -104
117 -104 136 0 7 35 11 99 11 l99 0 31 -42z m-1327 -782 c-27 -108 -46 -196
-41 -196 4 0 62 32 129 70 68 39 125 69 127 66 3 -2 -2 -54 -9 -115 -13 -98
-13 -111 1 -111 8 0 54 5 103 11 49 7 91 9 95 6 3 -4 -4 -48 -15 -99 -28 -124
-29 -132 -14 -134 6 -1 46 -2 87 -3 73 -1 75 -2 75 -26 l0 -26 -117 7 c-65 4
-119 8 -120 9 -2 0 9 47 22 104 14 56 25 106 25 110 0 4 -46 2 -102 -5 -57 -7
-105 -11 -106 -9 -2 2 1 45 8 95 7 50 10 94 7 96 -2 3 -64 -30 -136 -72 -73
-42 -134 -74 -136 -72 -3 3 13 76 34 164 22 87 38 160 36 162 -6 7 -113 -143
-159 -223 -88 -154 -159 -364 -186 -550 -15 -107 -12 -360 6 -487 33 -240 119
-508 240 -752 75 -151 189 -327 262 -407 56 -61 60 -70 38 -88 -30 -25 -201
201 -315 419 -151 288 -250 596 -282 879 -17 153 -7 420 21 551 63 294 203
559 409 772 30 32 56 56 58 54 2 -2 -18 -92 -45 -200z"/>
<path d="M3285 3269 c-297 -15 -577 -28 -622 -28 -46 -1 -83 -4 -83 -9 0 -7
49 -16 632 -116 163 -28 300 -54 303 -58 4 -4 -9 -55 -30 -113 -21 -58 -36
-107 -34 -109 2 -2 333 -6 734 -8 402 -3 714 -2 695 3 -19 4 -217 47 -440 94
-223 47 -433 92 -468 99 -35 8 -65 16 -68 18 -2 3 19 60 46 128 28 68 50 125
50 127 0 7 -199 -1 -715 -28z"/>
</g>
</svg>
